<svg width="1514" height="1513" viewBox="0 0 1514 1513" fill="none" xmlns="http://www.w3.org/2000/svg">
<rect x="0.674805" y="0.501953" width="1512.45" height="1512.45" fill="#0641FC"/>
<path d="M762.997 659.315L605.162 817.15C601.243 821.069 594.884 821.053 590.984 817.114L483.997 709.039C459.5 684.293 459.324 644.489 483.601 619.527L616.849 482.524C624.87 474.277 635.885 469.625 647.389 469.625H1025.68V542.613L929.959 638.329C922.333 645.955 911.99 650.24 901.205 650.24H784.906C776.689 650.24 768.808 653.504 762.997 659.315Z" fill="white"/>
<path d="M750.6 854.867L908.435 697.032C912.354 693.113 918.713 693.129 922.613 697.068L1029.6 805.143C1054.1 829.89 1054.27 869.693 1030 894.655L896.748 1031.66C888.727 1039.9 877.712 1044.56 866.208 1044.56H487.922V971.569L583.638 875.853C591.264 868.227 601.607 863.942 612.393 863.942H728.691C736.908 863.942 744.789 860.678 750.6 854.867Z" fill="white"/>
</svg>
