<svg width="130" height="30" viewBox="0 0 130 30" fill="none" xmlns="http://www.w3.org/2000/svg">
<path d="M117.979 23.3581V5.46632H121.275C121.988 5.46632 122.567 6.04463 122.567 6.758V9.75904L122.239 9.13644C122.632 7.62907 123.277 6.61323 124.172 6.08893C125.09 5.54278 126.171 5.2697 127.416 5.2697H130L128.773 8.67587C128.588 9.18816 128.102 9.52966 127.557 9.52966H126.925C125.723 9.52966 124.751 9.90104 124.008 10.6438C123.266 11.3647 122.894 12.3915 122.894 13.7241V23.3581H117.979Z" fill="black"/>
<path d="M106.565 23.7513C104.664 23.7513 103.015 23.3363 101.616 22.5061C100.218 21.6541 99.137 20.5182 98.3724 19.0982C97.6078 17.6782 97.2254 16.1053 97.2254 14.3794C97.2254 12.5881 97.6187 10.9933 98.4051 9.59518C99.2134 8.19704 100.295 7.09382 101.649 6.28552C103.004 5.47722 104.533 5.07307 106.237 5.07307C107.657 5.07307 108.913 5.30246 110.005 5.76122C111.098 6.19814 112.015 6.82075 112.758 7.62905C113.523 8.43735 114.101 9.37672 114.495 10.4472C114.888 11.4958 115.085 12.6427 115.085 13.8879C115.085 14.2374 115.063 14.587 115.019 14.9365C114.997 15.2642 114.942 15.5482 114.855 15.7885H101.453V12.1839H112.07L109.743 13.8879C109.962 12.9485 109.951 12.1184 109.71 11.3975C109.47 10.6547 109.044 10.0758 108.432 9.66072C107.843 9.2238 107.111 9.00534 106.237 9.00534C105.385 9.00534 104.653 9.21288 104.041 9.62795C103.43 10.043 102.971 10.6547 102.665 11.463C102.359 12.2713 102.239 13.2544 102.305 14.4122C102.217 15.4171 102.337 16.3019 102.665 17.0665C102.993 17.8311 103.495 18.4319 104.172 18.8688C104.85 19.2839 105.669 19.4914 106.63 19.4914C107.504 19.4914 108.247 19.3166 108.858 18.9671C109.022 18.8769 109.176 18.778 109.32 18.6703C110.017 18.1516 110.939 17.8132 111.724 18.1858L114.265 19.3931C113.916 20.2669 113.359 21.0315 112.594 21.6869C111.851 22.3423 110.967 22.8557 109.94 23.227C108.913 23.5766 107.788 23.7513 106.565 23.7513Z" fill="black"/>
<path d="M75.8978 29.9119V5.4663H79.3783C79.9897 5.4663 80.4854 5.96199 80.4854 6.57346V8.87427L80.0594 7.8912C80.6493 6.99552 81.4466 6.30737 82.4515 5.82676C83.4783 5.3243 84.6471 5.07307 85.9578 5.07307C87.6618 5.07307 89.2019 5.48815 90.5782 6.31829C91.9545 7.14844 93.0468 8.2735 93.8551 9.69349C94.6634 11.0916 95.0676 12.6645 95.0676 14.4122C95.0676 16.138 94.6634 17.7109 93.8551 19.1309C93.0687 20.5509 91.9873 21.676 90.611 22.5061C89.2347 23.3363 87.6727 23.7513 85.925 23.7513C84.7017 23.7513 83.5657 23.5329 82.5171 23.096C81.4903 22.6372 80.6602 21.9709 80.0266 21.0971L80.8131 20.0812V29.9119H75.8978ZM85.3352 19.3275C86.2527 19.3275 87.061 19.12 87.7601 18.7049C88.4592 18.2899 89.0053 17.7109 89.3985 16.9682C89.7918 16.2254 89.9884 15.3734 89.9884 14.4122C89.9884 13.451 89.7918 12.6099 89.3985 11.889C89.0053 11.1462 88.4592 10.5673 87.7601 10.1523C87.061 9.71534 86.2527 9.49688 85.3352 9.49688C84.4614 9.49688 83.6749 9.70441 82.9758 10.1195C82.2986 10.5346 81.7634 11.1135 81.3702 11.8562C80.9988 12.599 80.8131 13.451 80.8131 14.4122C80.8131 15.3734 80.9988 16.2254 81.3702 16.9682C81.7634 17.7109 82.2986 18.2899 82.9758 18.7049C83.6749 19.12 84.4614 19.3275 85.3352 19.3275Z" fill="black"/>
<path d="M62.7039 23.7514C61.2621 23.7514 60.0278 23.4455 59.001 22.8339C57.9961 22.2003 57.2315 21.3265 56.7072 20.2123C56.1829 19.0982 55.9208 17.7984 55.9208 16.3128V5.46634H59.5444C60.2578 5.46634 60.8361 6.04464 60.8361 6.75802V15.9196C60.8361 16.5968 60.9672 17.1976 61.2293 17.7219C61.5133 18.2244 61.9066 18.6176 62.409 18.9016C62.9115 19.1856 63.4795 19.3276 64.113 19.3276C64.7684 19.3276 65.3364 19.1856 65.817 18.9016C66.3194 18.6176 66.7017 18.2244 66.9639 17.7219C67.2479 17.1976 67.3899 16.5968 67.3899 15.9196V5.46634H72.3052V23.3582H67.7176V19.8191L67.9797 20.6056C67.5647 21.676 66.8874 22.4734 65.9481 22.9977C65.0305 23.5002 63.9492 23.7514 62.7039 23.7514Z" fill="black"/>
<path d="M46.4293 23.7513C44.4632 23.7513 42.7483 23.2926 41.2846 22.3751C39.8428 21.4357 38.8597 20.1795 38.3354 18.6066L40.7765 17.4526C41.4198 17.1486 42.1741 17.4355 42.6037 18.0026C42.9499 18.4596 43.3512 18.8466 43.8078 19.1637C44.5942 19.7099 45.4681 19.9829 46.4293 19.9829C47.1284 19.9829 47.6636 19.8409 48.035 19.5569C48.4064 19.2729 48.5921 18.8797 48.5921 18.3772C48.5921 18.1151 48.5265 17.8966 48.3954 17.7219C48.2644 17.5253 48.0678 17.3505 47.8056 17.1976C47.5434 17.0446 47.2158 16.9136 46.8225 16.8043L43.775 15.9523C42.3113 15.5373 41.1863 14.871 40.3998 13.9534C39.6134 13.0141 39.2201 11.9109 39.2201 10.6438C39.2201 9.52964 39.5041 8.5575 40.0721 7.72736C40.6401 6.89721 41.4375 6.25275 42.4643 5.79399C43.491 5.31338 44.6707 5.07307 46.0033 5.07307C47.751 5.07307 49.2802 5.48815 50.591 6.31829C51.9236 7.12659 52.8629 8.2735 53.4091 9.75903L51.0631 10.858C50.3715 11.182 49.5616 10.8068 49.0315 10.2571C48.8291 10.0472 48.5952 9.85932 48.3299 9.69349C47.6527 9.23472 46.8771 9.00534 46.0033 9.00534C45.3698 9.00534 44.8673 9.13642 44.4959 9.39857C44.1464 9.66072 43.9716 10.0212 43.9716 10.4799C43.9716 10.7202 44.0372 10.9387 44.1683 11.1353C44.2993 11.3319 44.5069 11.5067 44.7909 11.6596C45.0967 11.8125 45.4681 11.9545 45.905 12.0856L48.7559 12.9376C50.2414 13.3745 51.3774 14.0408 52.1639 14.9365C52.9503 15.8104 53.3435 16.8917 53.3435 18.1806C53.3435 19.2948 53.0486 20.2669 52.4588 21.0971C51.8908 21.9272 51.0934 22.5826 50.0667 23.0632C49.0399 23.522 47.8274 23.7513 46.4293 23.7513Z" fill="black"/>
<path d="M15.5075 9.88813L8.22083 17.1748C7.49764 17.898 6.32419 17.895 5.60466 17.1682L0.963785 12.4801C-0.313199 11.1902 -0.322365 9.11529 0.943171 7.81409L7.88911 0.672414C8.30721 0.242525 8.8814 0 9.48109 0H29.2004V3.80472L24.2109 8.7942C23.8134 9.19174 23.2742 9.41508 22.712 9.41508H16.6496C16.2212 9.41508 15.8104 9.58524 15.5075 9.88813Z" fill="#0641FC"/>
<path d="M14.8506 20.1198L22.1373 12.8331C22.8605 12.1099 24.0339 12.1129 24.7535 12.8397L29.3944 17.5278C30.6713 18.8177 30.6805 20.8926 29.415 22.1938L22.469 29.3355C22.0509 29.7654 21.4767 30.0079 20.8771 30.0079H1.15775V26.2032L6.14724 21.2137C6.54478 20.8162 7.08396 20.5928 7.64617 20.5928H13.7086C14.1369 20.5928 14.5477 20.4227 14.8506 20.1198Z" fill="#0641FC"/>
</svg>
