<svg width="705" height="163" viewBox="0 0 705 163" fill="none" xmlns="http://www.w3.org/2000/svg">
<path d="M639.362 126.584V29.6233H657.224C661.09 29.6233 664.224 32.7573 664.224 36.6233V52.8868L662.448 49.5127C664.579 41.3439 668.072 35.8387 672.926 32.9974C677.898 30.0377 683.758 28.5578 690.506 28.5578H704.508L697.856 47.0168C696.856 49.793 694.222 51.6437 691.271 51.6437H687.843C681.331 51.6437 676.063 53.6564 672.038 57.6816C668.012 61.5885 666 67.1528 666 74.3745V126.584H639.362Z" fill="white"/>
<path d="M577.505 128.715C567.205 128.715 558.266 126.466 550.689 121.967C543.112 117.35 537.252 111.194 533.109 103.498C528.965 95.8029 526.893 87.2789 526.893 77.9261C526.893 68.2182 529.024 59.5757 533.286 51.9988C537.667 44.4219 543.527 38.4432 550.867 34.0628C558.207 29.6824 566.494 27.4922 575.729 27.4922C583.424 27.4922 590.232 28.7353 596.151 31.2215C602.07 33.5892 607.043 36.9633 611.068 41.3438C615.212 45.7242 618.349 50.8149 620.48 56.616C622.611 62.2987 623.677 68.5141 623.677 75.2623C623.677 77.1566 623.558 79.0508 623.321 80.9451C623.203 82.7209 622.907 84.26 622.433 85.5622H549.801V66.028H607.339L594.73 75.2623C595.914 70.1716 595.855 65.6728 594.553 61.7659C593.25 57.7407 590.942 54.6034 587.627 52.354C584.43 49.9862 580.464 48.8023 575.729 48.8023C571.112 48.8023 567.146 49.927 563.831 52.1764C560.516 54.4258 558.03 57.7407 556.372 62.1211C554.715 66.5015 554.063 71.8291 554.419 78.1037C553.945 83.5496 554.596 88.3444 556.372 92.488C558.148 96.6317 560.871 99.8874 564.541 102.255C568.211 104.505 572.651 105.629 577.86 105.629C582.595 105.629 586.621 104.682 589.935 102.788C590.821 102.299 591.656 101.763 592.44 101.18C596.215 98.3687 601.212 96.5346 605.463 98.5539L619.237 105.097C617.343 109.832 614.324 113.976 610.18 117.527C606.155 121.079 601.36 123.861 595.796 125.874C590.231 127.768 584.134 128.715 577.505 128.715Z" fill="white"/>
<path d="M411.312 162.101V29.6232H430.174C433.488 29.6232 436.174 32.3095 436.174 35.6232V48.092L433.865 42.7644C437.062 37.9105 441.383 34.1812 446.829 31.5766C452.393 28.8537 458.727 27.4922 465.83 27.4922C475.065 27.4922 483.411 29.7416 490.87 34.2404C498.328 38.7392 504.248 44.8362 508.628 52.5316C513.009 60.1085 515.199 68.6325 515.199 78.1037C515.199 87.4565 513.009 95.9805 508.628 103.676C504.366 111.371 498.506 117.468 491.047 121.967C483.589 126.466 475.124 128.715 465.653 128.715C459.023 128.715 452.867 127.531 447.184 125.164C441.62 122.677 437.121 119.066 433.688 114.331L437.95 108.826V162.101H411.312ZM462.456 104.741C467.429 104.741 471.809 103.617 475.598 101.367C479.386 99.1178 482.346 95.9805 484.477 91.9553C486.608 87.93 487.673 83.3128 487.673 78.1037C487.673 72.8946 486.608 68.3366 484.477 64.4297C482.346 60.4045 479.386 57.2672 475.598 55.0178C471.809 52.65 467.429 51.4661 462.456 51.4661C457.721 51.4661 453.459 52.5908 449.67 54.8402C446 57.0896 443.1 60.2269 440.969 64.2521C438.956 68.2774 437.95 72.8946 437.95 78.1037C437.95 83.3128 438.956 87.93 440.969 91.9553C443.1 95.9805 446 99.1178 449.67 101.367C453.459 103.617 457.721 104.741 462.456 104.741Z" fill="white"/>
<path d="M339.811 128.715C331.997 128.715 325.308 127.058 319.744 123.743C314.298 120.31 310.154 115.574 307.313 109.536C304.472 103.498 303.051 96.4543 303.051 88.4038V29.6234H322.689C326.555 29.6234 329.689 32.7574 329.689 36.6234V86.2728C329.689 89.9428 330.399 93.1985 331.82 96.0399C333.359 98.7629 335.49 100.894 338.213 102.433C340.936 103.972 344.014 104.742 347.447 104.742C350.999 104.742 354.077 103.972 356.681 102.433C359.404 100.894 361.476 98.7629 362.897 96.0399C364.436 93.1985 365.205 89.9428 365.205 86.2728V29.6234H391.843V126.584H366.981V107.405L368.402 111.667C366.153 117.468 362.482 121.79 357.392 124.631C352.419 127.354 346.559 128.715 339.811 128.715Z" fill="white"/>
<path d="M251.614 128.715C240.959 128.715 231.665 126.229 223.733 121.257C215.919 116.166 210.592 109.359 207.751 100.834L220.98 94.5807C224.466 92.9328 228.554 94.4877 230.882 97.5613C232.758 100.038 234.933 102.135 237.407 103.853C241.669 106.813 246.405 108.293 251.614 108.293C255.402 108.293 258.303 107.523 260.316 105.984C262.328 104.445 263.334 102.314 263.334 99.5914C263.334 98.1707 262.979 96.9868 262.269 96.0397C261.559 94.9742 260.493 94.0271 259.072 93.1984C257.652 92.3696 255.876 91.6593 253.745 91.0674L237.23 86.4502C229.297 84.2008 223.2 80.5899 218.938 75.6175C214.676 70.5268 212.545 64.5481 212.545 57.6815C212.545 51.6436 214.084 46.3753 217.163 41.8765C220.241 37.3777 224.562 33.8852 230.126 31.399C235.691 28.7945 242.084 27.4922 249.305 27.4922C258.776 27.4922 267.064 29.7416 274.167 34.2404C281.389 38.6208 286.48 44.8363 289.439 52.8867L276.726 58.8426C272.978 60.5984 268.589 58.5652 265.716 55.5857C264.619 54.4483 263.352 53.4302 261.914 52.5316C258.244 50.0454 254.041 48.8023 249.305 48.8023C245.872 48.8023 243.149 49.5126 241.136 50.9333C239.242 52.354 238.295 54.3074 238.295 56.7936C238.295 58.0959 238.65 59.2798 239.361 60.3453C240.071 61.4108 241.196 62.3579 242.735 63.1866C244.392 64.0154 246.405 64.7849 248.773 65.4952L264.222 70.1124C272.273 72.4802 278.429 76.0911 282.691 80.9451C286.953 85.6806 289.084 91.5409 289.084 98.5259C289.084 104.564 287.486 109.832 284.289 114.331C281.211 118.83 276.89 122.381 271.326 124.986C265.761 127.472 259.191 128.715 251.614 128.715Z" fill="white"/>
<path d="M84.0398 53.5867L44.5511 93.0753C40.6319 96.9946 34.2726 96.9785 30.3733 93.0395L5.22303 67.6335C-1.69732 60.6428 -1.74699 49.3984 5.11132 42.3469L42.7534 3.64401C45.0192 1.31431 48.1309 0 51.3808 0H158.245V20.6189L131.206 47.6583C129.052 49.8127 126.13 51.0231 123.083 51.0231H90.2289C87.9075 51.0231 85.6812 51.9452 84.0398 53.5867Z" fill="#0641FC"/>
<path d="M80.4799 109.035L119.969 69.5463C123.888 65.6271 130.247 65.6431 134.146 69.5821L159.297 94.9881C166.217 101.979 166.267 113.223 159.408 120.275L121.766 158.978C119.5 161.307 116.389 162.622 113.139 162.622H6.27421V142.003L33.3137 114.963C35.4681 112.809 38.3901 111.599 41.4368 111.599H74.2908C76.6121 111.599 78.8384 110.676 80.4799 109.035Z" fill="#0641FC"/>
</svg>
